<svg xmlns="http://www.w3.org/2000/svg" viewBox="0 0 1024 1024" role="img" aria-label="GPT Image 2 logo">
  <defs>
    <linearGradient id="bg" x1="120" y1="80" x2="900" y2="940" gradientUnits="userSpaceOnUse">
      <stop stop-color="#111846"/>
      <stop offset="0.52" stop-color="#5B38D6"/>
      <stop offset="1" stop-color="#26D9FF"/>
    </linearGradient>
    <radialGradient id="glow" cx="50%" cy="40%" r="58%">
      <stop stop-color="#FFFFFF" stop-opacity="0.42"/>
      <stop offset="0.35" stop-color="#7E5BFF" stop-opacity="0.32"/>
      <stop offset="1" stop-color="#000000" stop-opacity="0"/>
    </radialGradient>
    <filter id="shadow" x="-20%" y="-20%" width="140%" height="140%">
      <feDropShadow dx="0" dy="26" stdDeviation="34" flood-color="#020617" flood-opacity="0.35"/>
    </filter>
    <linearGradient id="bladeA" x1="308" y1="234" x2="710" y2="650" gradientUnits="userSpaceOnUse">
      <stop stop-color="#6EF2FF"/>
      <stop offset="1" stop-color="#B098FF"/>
    </linearGradient>
    <linearGradient id="bladeB" x1="718" y1="236" x2="320" y2="650" gradientUnits="userSpaceOnUse">
      <stop stop-color="#FFFFFF" stop-opacity="0.96"/>
      <stop offset="1" stop-color="#59DAFF" stop-opacity="0.86"/>
    </linearGradient>
  </defs>
  <rect x="64" y="64" width="896" height="896" rx="220" fill="url(#bg)" filter="url(#shadow)"/>
  <rect x="64" y="64" width="896" height="896" rx="220" fill="url(#glow)"/>
  <g transform="translate(512 430)">
    <circle r="278" fill="none" stroke="#FFFFFF" stroke-opacity="0.12" stroke-width="28"/>
    <g opacity="0.95">
      <path d="M0 -270 C70 -246 121 -207 154 -151 L62 -68 C38 -112 0 -137 -53 -145 Z" fill="url(#bladeA)"/>
      <path d="M191 -191 C224 -124 232 -60 210 0 L84 18 C98 -30 88 -75 52 -115 Z" fill="url(#bladeB)"/>
      <path d="M270 0 C246 70 207 121 151 154 L68 62 C112 38 137 0 145 -53 Z" fill="#7CEEFF"/>
      <path d="M191 191 C124 224 60 232 0 210 L-18 84 C30 98 75 88 115 52 Z" fill="#B9A4FF"/>
      <path d="M0 270 C-70 246 -121 207 -154 151 L-62 68 C-38 112 0 137 53 145 Z" fill="#FFFFFF" fill-opacity="0.92"/>
      <path d="M-191 191 C-224 124 -232 60 -210 0 L-84 -18 C-98 30 -88 75 -52 115 Z" fill="#57DFFF" fill-opacity="0.9"/>
      <path d="M-270 0 C-246 -70 -207 -121 -151 -154 L-68 -62 C-112 -38 -137 0 -145 53 Z" fill="#9D80FF"/>
      <path d="M-191 -191 C-124 -224 -60 -232 0 -210 L18 -84 C-30 -98 -75 -88 -115 -52 Z" fill="#FFFFFF" fill-opacity="0.86"/>
    </g>
    <circle r="120" fill="#07102E" stroke="#FFFFFF" stroke-opacity="0.44" stroke-width="10"/>
    <circle r="54" fill="#58E8FF"/>
    <circle r="22" fill="#FFFFFF"/>
  </g>
  <path d="M748 176 L773 234 L832 256 L773 278 L748 336 L723 278 L664 256 L723 234 Z" fill="#FFFFFF" fill-opacity="0.96"/>
  <path d="M292 204 L306 236 L338 250 L306 264 L292 296 L278 264 L246 250 L278 236 Z" fill="#BFF7FF" fill-opacity="0.9"/>
  <rect x="654" y="648" width="190" height="190" rx="60" fill="#FFFFFF" fill-opacity="0.94"/>
  <text x="750" y="789" text-anchor="middle" font-size="132" font-weight="850" font-family="-apple-system, BlinkMacSystemFont, 'SF Pro Display', Inter, system-ui, sans-serif" fill="#3924A9">2</text>
  <text x="512" y="866" text-anchor="middle" font-size="70" font-weight="800" letter-spacing="8" font-family="-apple-system, BlinkMacSystemFont, 'SF Pro Display', Inter, system-ui, sans-serif" fill="#FFFFFF" fill-opacity="0.88">GPT IMAGE</text>
</svg>
